<svg width="91" height="24" viewBox="0 0 91 24" fill="none" xmlns="http://www.w3.org/2000/svg">
<path d="M35.0176 16.1094C35.0176 16.207 35.0013 16.3047 34.9688 16.4023C34.9427 16.4935 34.9134 16.5846 34.8809 16.6758C34.7376 17.0469 34.5618 17.3919 34.3535 17.7109C34.1452 18.0234 33.9043 18.2936 33.6309 18.5215C33.3574 18.7493 33.0482 18.9284 32.7031 19.0586C32.3581 19.1888 31.9772 19.2539 31.5605 19.2539C31.0072 19.2539 30.5319 19.1367 30.1348 18.9023C29.7376 18.668 29.3991 18.3652 29.1191 17.9941C28.8392 17.6165 28.6081 17.1966 28.4258 16.7344C28.25 16.2721 28.11 15.8099 28.0059 15.3477C27.8496 14.6771 27.7292 14.0065 27.6445 13.3359C27.5599 12.6589 27.5176 11.9818 27.5176 11.3047C27.5176 10.9076 27.5339 10.4974 27.5664 10.0742C27.6055 9.65104 27.6706 9.23438 27.7617 8.82422C27.8529 8.40755 27.9766 8.00716 28.1328 7.62305C28.2891 7.23242 28.4844 6.87435 28.7188 6.54883C28.9531 6.2168 29.2298 5.92383 29.5488 5.66992C29.8743 5.41602 30.252 5.21745 30.6816 5.07422C30.8379 5.01562 31.0007 4.97656 31.1699 4.95703C31.3392 4.93099 31.5085 4.91797 31.6777 4.91797C32.0163 4.91797 32.3385 4.97331 32.6445 5.08398C32.9505 5.19466 33.2174 5.35091 33.4453 5.55273C33.6797 5.75456 33.862 5.9987 33.9922 6.28516C34.1289 6.57161 34.1973 6.89062 34.1973 7.24219C34.1973 7.35938 34.1712 7.44727 34.1191 7.50586C34.0671 7.56445 33.9759 7.59375 33.8457 7.59375C33.6048 7.59375 33.416 7.55469 33.2793 7.47656C33.1491 7.39844 33.0417 7.30078 32.957 7.18359C32.8724 7.06641 32.8008 6.93945 32.7422 6.80273C32.6901 6.66602 32.625 6.53906 32.5469 6.42188C32.4688 6.30469 32.3646 6.20703 32.2344 6.12891C32.1042 6.05078 31.9251 6.01172 31.6973 6.01172C31.4694 6.01172 31.2546 6.05729 31.0527 6.14844C30.8574 6.23307 30.6751 6.34701 30.5059 6.49023C30.3431 6.63346 30.1934 6.79622 30.0566 6.97852C29.9264 7.1543 29.8092 7.33333 29.7051 7.51562C29.4316 8.02344 29.2396 8.56706 29.1289 9.14648C29.0182 9.7194 28.9629 10.2956 28.9629 10.875C28.9629 11.0703 28.9694 11.3242 28.9824 11.6367C29.002 11.9427 29.028 12.2812 29.0605 12.6523C29.0996 13.0234 29.1517 13.4173 29.2168 13.834C29.2819 14.2441 29.36 14.6478 29.4512 15.0449C29.5488 15.4421 29.6628 15.8229 29.793 16.1875C29.9297 16.5521 30.0827 16.8711 30.252 17.1445C30.4277 17.418 30.623 17.6361 30.8379 17.7988C31.0592 17.9616 31.3066 18.043 31.5801 18.043C31.86 18.043 32.1074 17.9714 32.3223 17.8281C32.5371 17.6784 32.7194 17.4928 32.8691 17.2715C33.0254 17.0436 33.1523 16.7995 33.25 16.5391C33.3542 16.2721 33.4355 16.0247 33.4941 15.7969C33.5137 15.7318 33.5299 15.6732 33.543 15.6211C33.5625 15.569 33.5853 15.5234 33.6113 15.4844C33.6439 15.4453 33.6829 15.416 33.7285 15.3965C33.7741 15.377 33.8392 15.3672 33.9238 15.3672C34.015 15.3672 34.1224 15.3867 34.2461 15.4258C34.3763 15.4583 34.4967 15.5072 34.6074 15.5723C34.7246 15.6374 34.8223 15.7155 34.9004 15.8066C34.9785 15.8978 35.0176 15.9987 35.0176 16.1094ZM41.5781 18.873C41.5781 19.0033 41.5456 19.0911 41.4805 19.1367C41.4154 19.1888 41.3242 19.2148 41.207 19.2148C40.901 19.2148 40.6797 19.1335 40.543 18.9707C40.4128 18.8079 40.3151 18.5931 40.25 18.3262C40.2305 18.235 40.2109 18.1439 40.1914 18.0527C40.1719 17.9551 40.1556 17.8607 40.1426 17.7695C40.1296 17.6849 40.1165 17.6263 40.1035 17.5938C40.0905 17.5612 40.0775 17.4993 40.0645 17.4082C39.9863 17.597 39.8887 17.7956 39.7715 18.0039C39.6608 18.2057 39.5306 18.3945 39.3809 18.5703C39.2311 18.7396 39.0618 18.8796 38.873 18.9902C38.6908 19.1009 38.4889 19.1562 38.2676 19.1562C38.0332 19.1562 37.8379 19.1009 37.6816 18.9902C37.5254 18.873 37.4017 18.7298 37.3105 18.5605C37.2259 18.3848 37.1641 18.1927 37.125 17.9844C37.0924 17.776 37.0762 17.5775 37.0762 17.3887C37.0762 16.946 37.1185 16.4674 37.2031 15.9531C37.2943 15.4323 37.418 14.9147 37.5742 14.4004C37.7305 13.8796 37.9128 13.3815 38.1211 12.9062C38.3294 12.4245 38.5573 12.0046 38.8047 11.6465V11.6562L38.8633 11.5684C38.9349 11.4707 39.0163 11.3665 39.1074 11.2559C39.2051 11.1387 39.319 11.0801 39.4492 11.0801C39.5729 11.0801 39.6803 11.1354 39.7715 11.2461C39.8626 11.3503 39.9277 11.4609 39.9668 11.5781C40.1361 11.6107 40.2728 11.653 40.377 11.7051C40.4811 11.7507 40.5625 11.8092 40.6211 11.8809C40.6797 11.9525 40.7188 12.0371 40.7383 12.1348C40.7578 12.2259 40.7676 12.3268 40.7676 12.4375C40.7676 12.4831 40.7676 12.5319 40.7676 12.584C40.7676 12.6361 40.7643 12.6882 40.7578 12.7402C40.7513 12.7923 40.748 12.8542 40.748 12.9258C40.748 12.9974 40.748 13.0625 40.748 13.1211C40.748 13.1862 40.7578 13.2708 40.7773 13.375C40.8034 13.4792 40.8294 13.5866 40.8555 13.6973L40.9238 14.0586C40.9564 14.2474 40.9824 14.4622 41.002 14.7031C41.028 14.944 41.0573 15.1849 41.0898 15.4258C41.1159 15.6732 41.1419 15.9141 41.168 16.1484C41.194 16.3763 41.2201 16.5879 41.2461 16.7832L41.4805 18.2285L41.5098 18.3945C41.5228 18.4792 41.5358 18.5573 41.5488 18.6289C41.5684 18.7005 41.5781 18.7819 41.5781 18.873ZM39.3418 13.2578C39.3418 13.2448 39.3385 13.2253 39.332 13.1992C39.3255 13.1667 39.319 13.1341 39.3125 13.1016C39.1628 13.4206 39.0293 13.7689 38.9121 14.1465C38.8014 14.5176 38.707 14.8984 38.6289 15.2891C38.5573 15.6732 38.502 16.0605 38.4629 16.4512C38.4303 16.8353 38.4141 17.1999 38.4141 17.5449C38.4141 17.5775 38.4141 17.6068 38.4141 17.6328C38.4141 17.6589 38.4173 17.6849 38.4238 17.7109V17.7207C38.5801 17.4798 38.7135 17.1641 38.8242 16.7734C38.9414 16.3763 39.0391 15.9629 39.1172 15.5332C39.1953 15.097 39.2507 14.6771 39.2832 14.2734C39.3223 13.8633 39.3418 13.5247 39.3418 13.2578ZM46.2539 18.7559C46.2539 18.8275 46.2376 18.8893 46.2051 18.9414C46.1725 18.987 46.1302 19.0228 46.0781 19.0488C46.0326 19.0749 45.9805 19.0911 45.9219 19.0977C45.8698 19.1107 45.8177 19.1172 45.7656 19.1172C45.694 19.1172 45.6094 19.1074 45.5117 19.0879C45.4206 19.0749 45.3294 19.0521 45.2383 19.0195C45.1471 18.987 45.0625 18.9479 44.9844 18.9023C44.9128 18.8503 44.8574 18.7884 44.8184 18.7168C44.7793 18.6517 44.7435 18.5312 44.7109 18.3555C44.6849 18.1732 44.6621 17.9648 44.6426 17.7305C44.623 17.4896 44.6068 17.2357 44.5938 16.9688C44.5807 16.6953 44.5677 16.4349 44.5547 16.1875C44.5482 15.9401 44.5417 15.7188 44.5352 15.5234C44.5352 15.3216 44.5352 15.1719 44.5352 15.0742C44.5352 14.6185 44.5417 14.179 44.5547 13.7559C44.5742 13.3262 44.5938 12.8867 44.6133 12.4375C44.5807 12.4375 44.5482 12.4408 44.5156 12.4473C44.4831 12.4538 44.4505 12.457 44.418 12.457C44.3333 12.4701 44.2454 12.4798 44.1543 12.4863C44.0697 12.4928 43.9818 12.4961 43.8906 12.4961C43.7799 12.4961 43.6823 12.4766 43.5977 12.4375C43.513 12.3984 43.4707 12.3105 43.4707 12.1738C43.4707 12.0111 43.5065 11.8809 43.5781 11.7832C43.6497 11.6855 43.7409 11.6107 43.8516 11.5586C43.9622 11.5 44.0827 11.4609 44.2129 11.4414C44.3431 11.4154 44.4701 11.3958 44.5938 11.3828C44.6133 11.3828 44.6263 11.3828 44.6328 11.3828C44.6393 11.3763 44.6523 11.373 44.6719 11.373C44.6784 11.2949 44.6849 11.2005 44.6914 11.0898C44.6979 10.9727 44.7044 10.8457 44.7109 10.709C44.7174 10.4941 44.7272 10.2663 44.7402 10.0254C44.7533 9.77799 44.7663 9.54362 44.7793 9.32227C44.7923 9.0944 44.8086 8.89583 44.8281 8.72656C44.8477 8.55078 44.8672 8.42708 44.8867 8.35547C44.9193 8.27083 44.9551 8.20247 44.9941 8.15039C45.0397 8.09831 45.1211 8.07227 45.2383 8.07227C45.4987 8.07227 45.7005 8.1569 45.8438 8.32617C45.987 8.49544 46.0586 8.70378 46.0586 8.95117C46.0586 9.23763 46.0488 9.52409 46.0293 9.81055C46.0163 10.097 46.0033 10.3867 45.9902 10.6797L45.9609 11.1777C46.1237 11.1582 46.2865 11.1289 46.4492 11.0898C46.6055 11.0573 46.7617 11.028 46.918 11.002C47.0807 10.9759 47.237 10.9629 47.3867 10.9629C47.5169 10.9629 47.6178 10.9987 47.6895 11.0703C47.7611 11.1354 47.7969 11.2331 47.7969 11.3633C47.7969 11.5065 47.7708 11.6465 47.7188 11.7832C47.6667 11.9199 47.5755 12.0241 47.4453 12.0957H47.4551C47.429 12.1087 47.3509 12.1283 47.2207 12.1543C47.0905 12.1738 46.9408 12.1934 46.7715 12.2129C46.6087 12.2324 46.446 12.252 46.2832 12.2715C46.127 12.291 46.0098 12.304 45.9316 12.3105H45.9219C45.9089 12.6751 45.8991 13.0365 45.8926 13.3945C45.8861 13.7461 45.8828 14.1042 45.8828 14.4688C45.8828 14.9701 45.8958 15.5039 45.9219 16.0703C45.9544 16.6302 46.0065 17.1641 46.0781 17.6719L46.1562 18.1113C46.1823 18.222 46.2051 18.3327 46.2246 18.4434C46.2441 18.5475 46.2539 18.6517 46.2539 18.7559ZM55.6855 17.5742C55.6855 17.724 55.6042 17.8672 55.4414 18.0039C55.2852 18.1406 55.0801 18.2676 54.8262 18.3848C54.5788 18.4954 54.3021 18.5996 53.9961 18.6973C53.6966 18.7884 53.4004 18.8665 53.1074 18.9316C52.821 18.9967 52.5573 19.0456 52.3164 19.0781C52.0755 19.1172 51.8965 19.1367 51.7793 19.1367C51.5579 19.1367 51.3529 19.1107 51.1641 19.0586C50.9818 19.0065 50.8223 18.9284 50.6855 18.8242C50.5488 18.7135 50.4414 18.5736 50.3633 18.4043C50.2917 18.235 50.2559 18.0299 50.2559 17.7891C50.2559 16.0508 50.2624 14.319 50.2754 12.5938C50.2884 10.8685 50.2949 9.13021 50.2949 7.37891C50.2949 7.10547 50.2884 6.83529 50.2754 6.56836C50.2624 6.30143 50.2559 6.03125 50.2559 5.75781C50.2559 5.69271 50.2591 5.61784 50.2656 5.5332C50.2721 5.44206 50.2884 5.36068 50.3145 5.28906C50.3405 5.21094 50.3796 5.14583 50.4316 5.09375C50.4837 5.04167 50.5553 5.01562 50.6465 5.01562C50.7376 5.01562 50.832 5.02865 50.9297 5.05469C51.0339 5.08073 51.1283 5.11979 51.2129 5.17188C51.304 5.22396 51.3822 5.28906 51.4473 5.36719C51.5189 5.4388 51.571 5.52344 51.6035 5.62109C51.6361 5.73828 51.6491 5.86523 51.6426 6.00195C51.6426 6.13216 51.6426 6.26562 51.6426 6.40234C51.6751 8.13411 51.6979 9.85286 51.7109 11.5586C51.7305 13.2643 51.7402 14.9831 51.7402 16.7148C51.7402 16.9102 51.7402 17.1055 51.7402 17.3008C51.7467 17.4961 51.7598 17.6914 51.7793 17.8867C51.9551 17.8802 52.1699 17.8509 52.4238 17.7988C52.6777 17.7467 52.9316 17.6816 53.1855 17.6035C53.446 17.5189 53.6901 17.4245 53.918 17.3203C54.1458 17.2161 54.3249 17.1055 54.4551 16.9883C54.5137 16.9297 54.5755 16.8711 54.6406 16.8125C54.7057 16.7474 54.7871 16.7148 54.8848 16.7148C54.9694 16.7148 55.0573 16.7441 55.1484 16.8027C55.2461 16.8613 55.334 16.9362 55.4121 17.0273C55.4902 17.112 55.5553 17.2031 55.6074 17.3008C55.6595 17.3984 55.6855 17.4896 55.6855 17.5742ZM62.0703 14.9961C62.0703 15.5625 62.0215 16.1289 61.9238 16.6953C61.8327 17.2552 61.6406 17.7858 61.3477 18.2871C61.2565 18.4368 61.1523 18.5833 61.0352 18.7266C60.918 18.8633 60.7878 18.987 60.6445 19.0977C60.5078 19.2148 60.3548 19.306 60.1855 19.3711C60.0228 19.4427 59.8503 19.4785 59.668 19.4785C59.3815 19.4785 59.1309 19.4102 58.916 19.2734C58.7077 19.1432 58.5254 18.9707 58.3691 18.7559C58.2194 18.5345 58.0924 18.2871 57.9883 18.0137C57.8906 17.7337 57.8125 17.4505 57.7539 17.1641C57.7018 16.8711 57.6628 16.5879 57.6367 16.3145C57.6172 16.041 57.6074 15.8001 57.6074 15.5918C57.6074 15.3574 57.6172 15.1003 57.6367 14.8203C57.6562 14.5404 57.6888 14.2539 57.7344 13.9609C57.7865 13.668 57.8516 13.3783 57.9297 13.0918C58.0143 12.8053 58.1217 12.5384 58.252 12.291C58.3822 12.0371 58.5384 11.8125 58.7207 11.6172C58.903 11.4154 59.1146 11.2559 59.3555 11.1387V11.1484C59.5638 11.0378 59.7721 10.9824 59.9805 10.9824C60.1107 10.9824 60.2116 11.0117 60.2832 11.0703C60.3548 11.1224 60.3874 11.2135 60.3809 11.3438C60.7389 11.4089 61.0286 11.5814 61.25 11.8613C61.4714 12.1413 61.6406 12.4668 61.7578 12.8379C61.8815 13.209 61.9629 13.5898 62.002 13.9805C62.0475 14.3711 62.0703 14.7096 62.0703 14.9961ZM59.8633 12.5547C59.7526 12.5547 59.6484 12.5124 59.5508 12.4277C59.4271 12.6165 59.3229 12.8346 59.2383 13.082C59.1536 13.3229 59.0853 13.5736 59.0332 13.834C58.9876 14.0879 58.9551 14.3451 58.9355 14.6055C58.916 14.8659 58.9062 15.11 58.9062 15.3379C58.9062 15.5267 58.916 15.7708 58.9355 16.0703C58.9551 16.3633 58.9909 16.6595 59.043 16.959C59.1016 17.2585 59.1797 17.5384 59.2773 17.7988C59.3815 18.0592 59.515 18.2513 59.6777 18.375C59.8796 18.2578 60.0456 18.0723 60.1758 17.8184C60.3125 17.5579 60.4199 17.2747 60.498 16.9688C60.5762 16.6628 60.6283 16.3535 60.6543 16.041C60.6868 15.7285 60.7031 15.4616 60.7031 15.2402C60.7031 15.0775 60.6934 14.8659 60.6738 14.6055C60.6543 14.3451 60.6217 14.0814 60.5762 13.8145C60.5306 13.541 60.4655 13.2871 60.3809 13.0527C60.3027 12.8184 60.2018 12.6426 60.0781 12.5254C60.0195 12.5449 59.9479 12.5547 59.8633 12.5547ZM68.3867 11.9199C68.3867 12.8184 68.3151 13.7038 68.1719 14.5762C68.0352 15.4486 67.8691 16.3177 67.6738 17.1836C67.6478 17.2682 67.6315 17.3398 67.625 17.3984C67.5859 17.5872 67.5436 17.7826 67.498 17.9844C67.459 18.1797 67.3939 18.375 67.3027 18.5703C67.2181 18.7331 67.1009 18.8763 66.9512 19C66.8079 19.1172 66.6484 19.1758 66.4727 19.1758C66.401 19.1758 66.3262 19.1595 66.248 19.127C66.1699 19.0944 66.0853 19.0521 65.9941 19C65.8639 18.9089 65.7663 18.7852 65.7012 18.6289C65.6361 18.4661 65.5807 18.3001 65.5352 18.1309L65.5156 18.0625V18.0723C65.4049 17.6491 65.3105 17.2259 65.2324 16.8027C65.1608 16.3796 65.0892 15.9531 65.0176 15.5234C64.9785 15.2565 64.9395 14.9928 64.9004 14.7324C64.8613 14.4655 64.8158 14.2018 64.7637 13.9414L64.627 13.3652C64.5944 13.235 64.5586 13.0951 64.5195 12.9453C64.487 12.7891 64.4544 12.6426 64.4219 12.5059C64.3893 12.3691 64.3633 12.2487 64.3438 12.1445C64.3242 12.0339 64.3145 11.959 64.3145 11.9199C64.3145 11.7962 64.3535 11.7148 64.4316 11.6758C64.5163 11.6302 64.6107 11.6074 64.7148 11.6074C64.9232 11.6074 65.1055 11.653 65.2617 11.7441C65.4245 11.8353 65.5417 11.985 65.6133 12.1934C65.6523 12.304 65.6849 12.4212 65.7109 12.5449C65.7435 12.6686 65.7695 12.7923 65.7891 12.916C65.8997 13.3457 66.0039 13.8014 66.1016 14.2832C66.2057 14.7585 66.2936 15.2174 66.3652 15.6602L66.4531 16.1582C66.4596 16.1908 66.4629 16.2168 66.4629 16.2363C66.4629 16.2559 66.4629 16.2721 66.4629 16.2852C66.4694 16.2982 66.4727 16.3145 66.4727 16.334C66.4792 16.3535 66.4857 16.3828 66.4922 16.4219C66.6354 15.7318 66.7559 15.0417 66.8535 14.3516C66.9512 13.6549 67 12.9551 67 12.252C67 12.1087 66.9902 11.9688 66.9707 11.832C66.9577 11.6953 66.9414 11.5521 66.9219 11.4023C66.9023 11.2656 66.8828 11.1257 66.8633 10.9824C66.8503 10.8327 66.8438 10.6829 66.8438 10.5332C66.8438 10.3965 66.8861 10.3021 66.9707 10.25C67.0553 10.1979 67.1595 10.1719 67.2832 10.1719C67.4329 10.1719 67.5697 10.1816 67.6934 10.2012C67.8171 10.2207 67.9245 10.2598 68.0156 10.3184C68.1068 10.3704 68.1816 10.4486 68.2402 10.5527C68.2988 10.6504 68.3379 10.7806 68.3574 10.9434C68.3704 11.0931 68.377 11.2559 68.377 11.4316C68.3835 11.6009 68.3867 11.7637 68.3867 11.9199ZM74.918 17.2129C74.918 17.4082 74.8626 17.61 74.752 17.8184C74.6478 18.0267 74.5111 18.2188 74.3418 18.3945C74.1725 18.5638 73.9772 18.7038 73.7559 18.8145C73.541 18.9251 73.3262 18.9805 73.1113 18.9805C72.8053 18.9805 72.5417 18.9219 72.3203 18.8047C72.099 18.681 71.9069 18.5182 71.7441 18.3164C71.5814 18.1081 71.4479 17.8737 71.3438 17.6133C71.2461 17.3529 71.168 17.0859 71.1094 16.8125C71.0508 16.5326 71.0085 16.2559 70.9824 15.9824C70.9629 15.7025 70.9531 15.4486 70.9531 15.2207C70.9531 15.0254 70.9629 14.7943 70.9824 14.5273C71.0085 14.2604 71.0475 13.9837 71.0996 13.6973C71.1582 13.4108 71.2363 13.1276 71.334 12.8477C71.4316 12.5677 71.5521 12.3171 71.6953 12.0957C71.8451 11.8743 72.0208 11.6953 72.2227 11.5586C72.431 11.4219 72.6686 11.3535 72.9355 11.3535C73.1439 11.3535 73.3294 11.3958 73.4922 11.4805C73.6615 11.5651 73.8014 11.679 73.9121 11.8223C74.0293 11.959 74.1172 12.1185 74.1758 12.3008C74.2409 12.4831 74.2734 12.6719 74.2734 12.8672C74.2734 13.1211 74.2148 13.3978 74.0977 13.6973C73.9805 13.9967 73.8275 14.2865 73.6387 14.5664C73.4564 14.8464 73.248 15.1003 73.0137 15.3281C72.7858 15.5495 72.5579 15.7188 72.3301 15.8359C72.3431 15.9531 72.3691 16.1257 72.4082 16.3535C72.4473 16.5749 72.4993 16.7962 72.5645 17.0176C72.6361 17.2389 72.7174 17.431 72.8086 17.5938C72.9062 17.7565 73.0202 17.8379 73.1504 17.8379C73.2155 17.8379 73.2708 17.8184 73.3164 17.7793C73.3685 17.7402 73.4141 17.6882 73.4531 17.623C73.4922 17.5579 73.5247 17.4863 73.5508 17.4082C73.5833 17.3301 73.6126 17.2552 73.6387 17.1836L73.6973 17.0469C73.7103 17.0273 73.7168 17.0143 73.7168 17.0078C73.7233 17.0013 73.7298 16.9915 73.7363 16.9785C73.7819 16.8939 73.8242 16.8158 73.8633 16.7441C73.9089 16.6725 73.9707 16.6107 74.0488 16.5586H74.0391C74.0651 16.5326 74.0911 16.5195 74.1172 16.5195C74.1497 16.513 74.179 16.5098 74.2051 16.5098C74.2767 16.5098 74.3548 16.5326 74.4395 16.5781C74.5241 16.6237 74.6022 16.6823 74.6738 16.7539C74.7454 16.819 74.804 16.8939 74.8496 16.9785C74.8952 17.0566 74.918 17.1348 74.918 17.2129ZM72.9844 12.9062C72.9844 12.8411 72.9811 12.7728 72.9746 12.7012C72.9681 12.6296 72.9518 12.5677 72.9258 12.5156C72.8346 12.6263 72.7533 12.7598 72.6816 12.916C72.6165 13.0658 72.5612 13.2253 72.5156 13.3945C72.4701 13.5573 72.431 13.7233 72.3984 13.8926C72.3724 14.0618 72.3529 14.2181 72.3398 14.3613C72.5091 14.1595 72.6589 13.9316 72.7891 13.6777C72.9193 13.4173 72.9844 13.1602 72.9844 12.9062ZM78.2852 19.1562C78.1875 19.1562 78.0801 19.1432 77.9629 19.1172C77.8522 19.0911 77.7448 19.0488 77.6406 18.9902C77.543 18.9316 77.4583 18.86 77.3867 18.7754C77.3216 18.6842 77.2891 18.5768 77.2891 18.4531C77.2891 18.2708 77.2956 18.0918 77.3086 17.916C77.3281 17.7337 77.3477 17.5547 77.3672 17.3789V17.3887L77.4258 16.7344C77.4453 16.5 77.4616 16.2428 77.4746 15.9629C77.4876 15.6829 77.4974 15.3997 77.5039 15.1133C77.5169 14.8203 77.5267 14.5339 77.5332 14.2539C77.5397 13.974 77.543 13.7168 77.543 13.4824C77.543 13.3457 77.5397 13.209 77.5332 13.0723C77.5332 12.929 77.5332 12.7858 77.5332 12.6426C77.5267 12.5189 77.5234 12.3822 77.5234 12.2324C77.5234 12.0762 77.5234 11.9329 77.5234 11.8027C77.5234 11.666 77.5397 11.5553 77.5723 11.4707C77.6113 11.3796 77.7155 11.334 77.8848 11.334C78.0345 11.334 78.1908 11.373 78.3535 11.4512C78.5228 11.5293 78.64 11.64 78.7051 11.7832H78.6953C78.7279 11.8548 78.7507 11.972 78.7637 12.1348C78.7832 12.291 78.7962 12.431 78.8027 12.5547C78.9134 12.3854 79.0371 12.2064 79.1738 12.0176C79.3171 11.8288 79.4701 11.6562 79.6328 11.5C79.7956 11.3372 79.9681 11.2038 80.1504 11.0996C80.3327 10.9954 80.528 10.9434 80.7363 10.9434C81.0098 10.9434 81.2181 11.0117 81.3613 11.1484C81.5046 11.2852 81.6087 11.4577 81.6738 11.666C81.7389 11.8678 81.7747 12.0859 81.7812 12.3203C81.7878 12.5482 81.791 12.7565 81.791 12.9453V13.0234C81.791 13.1016 81.7878 13.1797 81.7812 13.2578C81.7812 13.3294 81.7682 13.3978 81.7422 13.4629C81.7227 13.5215 81.6836 13.5703 81.625 13.6094C81.5729 13.6484 81.498 13.668 81.4004 13.668C81.2962 13.668 81.1855 13.6549 81.0684 13.6289C80.9512 13.5964 80.8405 13.5508 80.7363 13.4922C80.6387 13.4336 80.554 13.362 80.4824 13.2773C80.4108 13.1862 80.3717 13.082 80.3652 12.9648C80.3652 12.9128 80.3652 12.8607 80.3652 12.8086C80.3652 12.7565 80.3685 12.7044 80.375 12.6523C80.375 12.6198 80.375 12.5807 80.375 12.5352C80.3815 12.4831 80.3848 12.4342 80.3848 12.3887C80.1764 12.597 79.9909 12.8542 79.8281 13.1602C79.6719 13.4661 79.5286 13.7917 79.3984 14.1367C79.2747 14.4818 79.1673 14.8301 79.0762 15.1816C78.985 15.5267 78.9069 15.8392 78.8418 16.1191V16.1484C78.8223 16.3503 78.8092 16.5488 78.8027 16.7441C78.7962 16.9395 78.7897 17.1413 78.7832 17.3496C78.7767 17.584 78.7669 17.8216 78.7539 18.0625C78.7474 18.3034 78.7311 18.5378 78.7051 18.7656C78.6921 18.8893 78.653 18.9837 78.5879 19.0488C78.5293 19.1204 78.4284 19.1562 78.2852 19.1562ZM87.502 11.8418C87.502 11.9199 87.4727 11.985 87.4141 12.0371C87.362 12.0892 87.2969 12.1348 87.2188 12.1738C87.1406 12.2064 87.0592 12.2292 86.9746 12.2422C86.8965 12.2552 86.8314 12.2617 86.7793 12.2617C86.7012 12.2617 86.6263 12.2552 86.5547 12.2422C86.4831 12.2227 86.4115 12.2031 86.3398 12.1836C86.2682 12.1641 86.1999 12.1478 86.1348 12.1348C86.0697 12.1152 86.0013 12.1055 85.9297 12.1055C85.832 12.1055 85.7344 12.1217 85.6367 12.1543C85.5391 12.1868 85.4512 12.2324 85.373 12.291C85.2949 12.3496 85.2298 12.4212 85.1777 12.5059C85.1322 12.5905 85.1094 12.6849 85.1094 12.7891C85.1094 12.9453 85.1419 13.1016 85.207 13.2578C85.2721 13.4076 85.3568 13.5605 85.4609 13.7168C85.5716 13.873 85.6953 14.0326 85.832 14.1953C85.9753 14.3516 86.125 14.5111 86.2812 14.6738C86.4701 14.8822 86.6589 15.0938 86.8477 15.3086C87.043 15.5234 87.2155 15.748 87.3652 15.9824C87.5215 16.2168 87.6484 16.4642 87.7461 16.7246C87.8438 16.985 87.8926 17.2585 87.8926 17.5449C87.8926 17.7923 87.8503 18.0137 87.7656 18.209C87.6875 18.4043 87.5736 18.5703 87.4238 18.707C87.2806 18.8438 87.1048 18.9479 86.8965 19.0195C86.6947 19.0977 86.4733 19.1367 86.2324 19.1367C86.1673 19.1367 86.0664 19.1237 85.9297 19.0977C85.7995 19.0716 85.6497 19.0358 85.4805 18.9902C85.3112 18.9382 85.1354 18.8828 84.9531 18.8242C84.7773 18.7656 84.6146 18.7038 84.4648 18.6387C84.3216 18.5671 84.2012 18.4987 84.1035 18.4336C84.0124 18.362 83.9668 18.2969 83.9668 18.2383C83.9668 18.1602 84.0026 18.082 84.0742 18.0039C84.1458 17.9193 84.2305 17.8444 84.3281 17.7793C84.4258 17.7077 84.5267 17.6491 84.6309 17.6035C84.7415 17.5579 84.8327 17.5352 84.9043 17.5352C85.002 17.5352 85.1029 17.5579 85.207 17.6035C85.3177 17.6491 85.4284 17.7012 85.5391 17.7598C85.6628 17.8249 85.7865 17.8835 85.9102 17.9355C86.0404 17.9876 86.1738 18.0137 86.3105 18.0137C86.4147 18.0137 86.4733 17.9779 86.4863 17.9062C86.5059 17.8346 86.5156 17.7533 86.5156 17.6621C86.5156 17.4342 86.4766 17.2194 86.3984 17.0176C86.3203 16.8092 86.2194 16.6074 86.0957 16.4121C85.972 16.2168 85.8288 16.028 85.666 15.8457C85.5033 15.6569 85.3405 15.4714 85.1777 15.2891C85.0085 15.1068 84.8424 14.9245 84.6797 14.7422C84.5234 14.5599 84.3835 14.3743 84.2598 14.1855C84.1361 13.9902 84.0352 13.7917 83.957 13.5898C83.8854 13.388 83.8496 13.1732 83.8496 12.9453C83.8496 12.6654 83.9115 12.4147 84.0352 12.1934C84.1589 11.9655 84.3184 11.7702 84.5137 11.6074C84.7155 11.4447 84.9401 11.321 85.1875 11.2363C85.4414 11.1452 85.6953 11.0996 85.9492 11.0996C86.0339 11.0996 86.1641 11.1191 86.3398 11.1582C86.5156 11.1908 86.6882 11.2396 86.8574 11.3047C87.0267 11.3698 87.1764 11.4479 87.3066 11.5391C87.4368 11.6302 87.502 11.7311 87.502 11.8418Z" fill="white"/>
<path d="M18.7884 10.8388C18.7884 10.8388 11.3355 8.30475 9.58432 9.64906C8.1897 10.7197 9.41757 12.5465 9.19709 13.851C8.9766 15.1554 8.29387 18.1348 8.29387 18.1348C8.14197 19.1339 8.42676 20.1478 9.08564 20.9534L9.19709 21.0896C10.5076 22.6919 12.9788 23.0112 14.7167 21.8032C15.6726 21.1384 16.2491 20.1093 16.2833 19.0059L16.3183 17.8821L17.4999 18.1602C18.6599 18.4332 19.8917 18.2053 20.8476 17.5407C22.5855 16.3325 22.9319 14.0541 21.6215 12.4519L21.51 12.3157C20.8511 11.5101 19.8721 10.9788 18.7884 10.8388Z" fill="#FF91A4"/>
<path d="M12.24 6.74414C13.3312 5.72341 13.1047 3.80283 11.734 2.4544C10.3634 1.10597 8.36768 0.840311 7.27649 1.86103C6.1853 2.88175 6.41184 4.80232 7.7825 6.15075C9.15315 7.49918 11.1489 7.76485 12.24 6.74414Z" fill="#FF91A4"/>
<path d="M19.0803 8.54359C20.1715 7.52288 20.0888 5.74385 18.8956 4.57001C17.7025 3.39617 15.8506 3.27205 14.7594 4.29278C13.6682 5.3135 13.7509 7.09252 14.9441 8.26636C16.1373 9.4402 17.9891 9.56432 19.0803 8.54359Z" fill="#FF91A4"/>
<path d="M7.03217 10.9986C8.12336 9.97784 7.87842 8.03916 6.48507 6.66839C5.09171 5.29763 3.0776 5.01388 1.98641 6.03459C0.895223 7.05532 1.14017 8.99401 2.53352 10.3648C3.92686 11.7355 5.94098 12.0193 7.03217 10.9986Z" fill="#FF91A4"/>
<path d="M7.09982 17.6862C8.19102 16.6655 8.10833 14.8864 6.91516 13.7126C5.72199 12.5388 3.87014 12.4146 2.77897 13.4354C1.68777 14.4561 1.77044 16.2351 2.96361 17.4089C4.1568 18.5828 6.00863 18.7069 7.09982 17.6862Z" fill="#FF91A4"/>
</svg>
